<?xml version="1.0" encoding="utf-8"?>
<!-- Generator: Adobe Illustrator 22.1.0, SVG Export Plug-In . SVG Version: 6.00 Build 0)  -->
<svg version="1.1" id="Capa_1" xmlns="http://www.w3.org/2000/svg" xmlns:xlink="http://www.w3.org/1999/xlink" x="0px" y="0px"
	 viewBox="0 0 149.9 149.9" style="enable-background:new 0 0 149.9 149.9;" xml:space="preserve">
<style type="text/css">
	.st0{fill:url(#SVGID_1_);}
	.st1{fill:url(#SVGID_2_);}
	.st2{fill:url(#SVGID_3_);}
	.st3{fill:url(#SVGID_4_);}
	.st4{fill:url(#SVGID_5_);}
	.st5{fill:url(#SVGID_6_);}
	.st6{fill:url(#SVGID_7_);}
	.st7{fill:url(#SVGID_8_);}
	.st8{fill:url(#SVGID_9_);}
	.st9{fill:url(#SVGID_10_);}
	.st10{fill:url(#SVGID_11_);}
	.st11{fill:url(#SVGID_12_);}
	.st12{fill:url(#SVGID_13_);}
</style>
<g>
	<linearGradient id="SVGID_1_" gradientUnits="userSpaceOnUse" x1="-328.9847" y1="-375.2449" x2="-223.5322" y2="-375.2449">
		<stop  offset="0" style="stop-color:#FE330A"/>
		<stop  offset="0.1971" style="stop-color:#FF500C"/>
		<stop  offset="0.3772" style="stop-color:#FF640D"/>
		<stop  offset="0.5" style="stop-color:#FF6B0D"/>
		<stop  offset="0.6311" style="stop-color:#FF620D"/>
		<stop  offset="0.8475" style="stop-color:#FE490B"/>
		<stop  offset="1" style="stop-color:#FE330A"/>
	</linearGradient>
	<path class="st0" d="M-231.5-345.7c1.4-4.5,2.1-9,2.1-13.6c0-5.1-0.8-10.1-2.4-14.9l-6.6-19.8c-2.2-6.7-7.6-11.7-14.3-13.4
		c-2.4-0.6-5.5-1.3-8.9-1.8v-7.1h2.9c3.2,0,5.9-2.6,5.9-5.9v-11.7c0-6.5-5.3-11.7-11.7-11.7H-288c-6.5,0-11.7,5.3-11.7,11.7v11.7
		c0,3.2,2.6,5.9,5.9,5.9h2.9v7.1c-3.4,0.6-6.5,1.2-8.9,1.8c-6.7,1.7-12.1,6.7-14.3,13.4l-6.6,19.8c-1.6,4.8-2.4,9.8-2.4,14.9
		c0,4.6,0.7,9.1,2.1,13.6c-4.5,1-7.9,5.1-7.9,9.9c0,4.7,0.9,16.1,3,21.2l1.3,3.2c1.6,3.9,5.3,6.4,9.4,6.4h78.5
		c3.9,0,7.4-2.2,9.1-5.6c2.9-5.9,4.2-18.2,4.2-23.5v-1.7C-223.5-340.6-226.9-344.7-231.5-345.7L-231.5-345.7z M-293.8-422.1v-11.7
		c0-3.2,2.6-5.9,5.9-5.9h23.4c3.2,0,5.9,2.6,5.9,5.9v11.7H-293.8z M-267.5-416.3v6.4c-2.8-0.3-5.7-0.5-8.8-0.5s-6,0.2-8.8,0.5v-6.4
		H-267.5z M-315.2-372.3l6.6-19.8c1.6-4.8,5.4-8.3,10.2-9.5c5.2-1.3,13.3-2.9,22.1-2.9c8.8,0,16.9,1.6,22.1,2.9
		c4.8,1.2,8.6,4.8,10.2,9.5l6.6,19.8c1.4,4.2,2.1,8.6,2.1,13c0,4.8-0.9,9.7-2.7,14.4c-2,0.9-3.8,2.5-4.9,4.6l-2.7,5.4
		c-0.9-0.3-2-0.6-3.2-1l3.8-7.6c2.4-4.9,3.7-10.3,3.7-15.8c0-3.8-0.6-7.6-1.8-11.2l-6.6-19.8c-0.9-2.8-3.2-5-6-5.7
		c-4.9-1.2-12.5-2.7-20.7-2.7c-8.2,0-15.8,1.5-20.7,2.7c-2.8,0.7-5.1,2.9-6,5.7l-6.6,19.8c-1.2,3.6-1.8,7.4-1.8,11.2
		c0,5.5,1.3,10.9,3.7,15.8l3.8,7.5c-1.2,0.4-2.3,0.7-3.2,1l-2.7-5.4c-1.1-2.1-2.8-3.7-4.9-4.6c-1.8-4.7-2.7-9.5-2.7-14.4
		C-317.3-363.7-316.6-368.1-315.2-372.3L-315.2-372.3z M-250.1-346.1l-4.4,8.7c-5.9-1.4-13.5-2.6-21.8-2.6s-15.9,1.3-21.8,2.6
		l-4.4-8.6c-2-4.1-3.1-8.6-3.1-13.2c0-3.2,0.5-6.3,1.5-9.3l6.6-19.8c0.3-0.9,1-1.7,1.9-1.9c4.6-1.2,11.7-2.5,19.3-2.5
		c7.6,0,14.7,1.4,19.3,2.5c0.8,0.2,1.6,0.9,1.9,1.9l6.6,19.8c1,3,1.5,6.1,1.5,9.3C-247-354.7-248-350.2-250.1-346.1L-250.1-346.1z
		 M-229.4-334.1c0,5.8-1.4,16.5-3.5,20.9c-0.7,1.5-2.2,2.4-3.9,2.4h-78.5c-1.8,0-3.3-1.1-4-2.7l-1.3-3.2c-1.6-3.9-2.5-13.9-2.5-19
		c0-2.4,1.9-4.3,4.3-4.3c1.6,0,3.1,0.9,3.9,2.4l3.9,7.7c0.7,1.4,2.3,2,3.7,1.4c0.1-0.1,14.3-5.6,31.1-5.6c16.8,0,31,5.6,31.1,5.6
		c1.4,0.6,3,0,3.7-1.4l3.9-7.7c0.7-1.5,2.2-2.4,3.9-2.4c2.4,0,4.3,1.9,4.3,4.3V-334.1z M-229.4-334.1"/>
	<linearGradient id="SVGID_2_" gradientUnits="userSpaceOnUse" x1="-308.4761" y1="-321.0539" x2="-244.0407" y2="-321.0539">
		<stop  offset="0" style="stop-color:#FE330A"/>
		<stop  offset="0.1971" style="stop-color:#FF500C"/>
		<stop  offset="0.3772" style="stop-color:#FF640D"/>
		<stop  offset="0.5" style="stop-color:#FF6B0D"/>
		<stop  offset="0.6311" style="stop-color:#FF620D"/>
		<stop  offset="0.8475" style="stop-color:#FE490B"/>
		<stop  offset="1" style="stop-color:#FE330A"/>
	</linearGradient>
	<path class="st1" d="M-244.2-323.4c-0.5-1.5-2.2-2.4-3.7-1.9c-0.1,0-8.8,2.8-28.4,2.8s-28.3-2.8-28.4-2.8c-1.5-0.5-3.2,0.3-3.7,1.9
		c-0.5,1.5,0.3,3.2,1.8,3.7c0.4,0.1,9.5,3.1,30.2,3.1s29.8-3,30.2-3.1C-244.5-320.3-243.7-321.9-244.2-323.4L-244.2-323.4z
		 M-244.2-323.4"/>
</g>
<g>
	<linearGradient id="SVGID_3_" gradientUnits="userSpaceOnUse" x1="-118.8152" y1="-398.3366" x2="24.1847" y2="-398.3366">
		<stop  offset="0" style="stop-color:#FE330A"/>
		<stop  offset="0.1971" style="stop-color:#FF500C"/>
		<stop  offset="0.3772" style="stop-color:#FF640D"/>
		<stop  offset="0.5" style="stop-color:#FF6B0D"/>
		<stop  offset="0.6311" style="stop-color:#FF620D"/>
		<stop  offset="0.8475" style="stop-color:#FE490B"/>
		<stop  offset="1" style="stop-color:#FE330A"/>
	</linearGradient>
	<path class="st2" d="M-47.3-469.8c-39.4,0-71.5,32.1-71.5,71.5s32.1,71.5,71.5,71.5s71.5-32.1,71.5-71.5S-7.9-469.8-47.3-469.8
		L-47.3-469.8z M-47.3-332.8c-36.1,0-65.5-29.4-65.5-65.5s29.4-65.5,65.5-65.5s65.5,29.4,65.5,65.5S-11.2-332.8-47.3-332.8
		L-47.3-332.8z M-47.3-332.8"/>
	<linearGradient id="SVGID_4_" gradientUnits="userSpaceOnUse" x1="-106.8986" y1="-398.3366" x2="12.2681" y2="-398.3366">
		<stop  offset="0" style="stop-color:#FE330A"/>
		<stop  offset="0.1971" style="stop-color:#FF500C"/>
		<stop  offset="0.3772" style="stop-color:#FF640D"/>
		<stop  offset="0.5" style="stop-color:#FF6B0D"/>
		<stop  offset="0.6311" style="stop-color:#FF620D"/>
		<stop  offset="0.8475" style="stop-color:#FE490B"/>
		<stop  offset="1" style="stop-color:#FE330A"/>
	</linearGradient>
	<path class="st3" d="M-47.3-457.9c-32.9,0-59.6,26.7-59.6,59.6s26.7,59.6,59.6,59.6s59.6-26.7,59.6-59.6S-14.5-457.9-47.3-457.9
		L-47.3-457.9z M-47.3-452c23.6,0,43.6,15.3,50.8,36.5c-13.2-4.3-31.3-6.7-50.8-6.7c-19.5,0-37.6,2.4-50.8,6.7
		C-90.9-436.7-70.9-452-47.3-452L-47.3-452z M-100-388.7l8.1-3c4-1.5,8.6-0.5,11.6,2.5c3,3,4,7.6,2.5,11.6l-6.6,17.9
		C-92.4-367.3-98-377.4-100-388.7L-100-388.7z M-47.3-344.7c-5.9,0-11.5-1-16.8-2.7l6.8-14.7c1.8-3.9,5.7-6.4,10-6.4
		c4.3,0,8.2,2.5,10,6.4l6.8,14.7C-35.8-345.7-41.5-344.7-47.3-344.7L-47.3-344.7z M-10.2-359.7l-6.6-17.9c-1.5-4-0.5-8.6,2.5-11.6
		c3-3,7.6-4,11.6-2.5l8.1,3C3.3-377.4-2.3-367.3-10.2-359.7L-10.2-359.7z M-0.7-397.3c-6.2-2.3-13.2-0.7-17.8,3.9
		c-4.7,4.7-6.2,11.7-3.9,17.8l7.4,20c-3.1,2.3-6.4,4.3-9.9,5.9l-6.9-15c-2.8-6-8.8-9.8-15.4-9.8s-12.6,3.9-15.4,9.8l-6.9,15
		c-3.5-1.6-6.8-3.6-9.9-5.9l7.4-20c2.3-6.2,0.7-13.2-3.9-17.8c-4.7-4.7-11.7-6.2-17.8-3.9l-6.8,2.5c-0.1-1.2-0.2-2.4-0.2-3.6
		c0-3.5,0.4-6.8,1-10.1c12.6-4.9,32.1-7.8,52.6-7.8c20.6,0,40,2.9,52.6,7.8c0.6,3.3,1,6.7,1,10.1c0,1.2-0.1,2.4-0.2,3.6L-0.7-397.3z
		 M-0.7-397.3"/>
	<linearGradient id="SVGID_5_" gradientUnits="userSpaceOnUse" x1="-59.2319" y1="-398.3366" x2="-35.3986" y2="-398.3366">
		<stop  offset="0" style="stop-color:#FE330A"/>
		<stop  offset="0.1971" style="stop-color:#FF500C"/>
		<stop  offset="0.3772" style="stop-color:#FF640D"/>
		<stop  offset="0.5" style="stop-color:#FF6B0D"/>
		<stop  offset="0.6311" style="stop-color:#FF620D"/>
		<stop  offset="0.8475" style="stop-color:#FE490B"/>
		<stop  offset="1" style="stop-color:#FE330A"/>
	</linearGradient>
	<path class="st4" d="M-47.3-410.3c-6.6,0-11.9,5.3-11.9,11.9c0,6.6,5.3,11.9,11.9,11.9c6.6,0,11.9-5.3,11.9-11.9
		C-35.4-404.9-40.7-410.3-47.3-410.3L-47.3-410.3z M-47.3-392.4c-3.3,0-6-2.7-6-6c0-3.3,2.7-6,6-6c3.3,0,6,2.7,6,6
		C-41.4-395.1-44-392.4-47.3-392.4L-47.3-392.4z M-47.3-392.4"/>
</g>
<g>
	<linearGradient id="SVGID_6_" gradientUnits="userSpaceOnUse" x1="3.6334" y1="74.9512" x2="146.2691" y2="74.9512">
		<stop  offset="0" style="stop-color:#FE330A"/>
		<stop  offset="0.1971" style="stop-color:#FF500C"/>
		<stop  offset="0.3772" style="stop-color:#FF640D"/>
		<stop  offset="0.5" style="stop-color:#FF6B0D"/>
		<stop  offset="0.6311" style="stop-color:#FF620D"/>
		<stop  offset="0.8475" style="stop-color:#FE490B"/>
		<stop  offset="1" style="stop-color:#FE330A"/>
	</linearGradient>
	<path class="st5" d="M146.1,70.9l-13.9-37.2c-2.8-7.4-7.7-13.5-14.2-17.9c-6.1-4.1-13.3-6.3-20.7-6.3H15.5C9,9.6,3.6,14.9,3.6,21.5
		v107c0,6.6,5.3,11.9,11.9,11.9h68.8c1.5,0,2.7-1.1,2.9-2.6c2.7-18.9,19.1-33.1,38.2-33.1c1.7,0,3.4,0.2,5.1,0.4
		c1.3,0.2,2.6-0.6,3.1-1.8L146,73.1C146.3,72.4,146.3,71.6,146.1,70.9z M129.1,98.9c-1.2-0.1-2.4-0.2-3.6-0.2
		c-21.1,0-39.4,15.2-43.6,35.7H15.5c-3.3,0-5.9-2.7-5.9-5.9v-107c0-3.3,2.7-5.9,5.9-5.9h81.7c6.2,0,12.2,1.8,17.4,5.3
		c5.5,3.7,9.6,8.9,11.9,15.1l13.5,36.1L129.1,98.9z"/>
	<linearGradient id="SVGID_7_" gradientUnits="userSpaceOnUse" x1="15.5198" y1="51.1785" x2="133.5045" y2="51.1785">
		<stop  offset="0" style="stop-color:#FE330A"/>
		<stop  offset="0.1971" style="stop-color:#FF500C"/>
		<stop  offset="0.3772" style="stop-color:#FF640D"/>
		<stop  offset="0.5" style="stop-color:#FF6B0D"/>
		<stop  offset="0.6311" style="stop-color:#FF620D"/>
		<stop  offset="0.8475" style="stop-color:#FE490B"/>
		<stop  offset="1" style="stop-color:#FE330A"/>
	</linearGradient>
	<path class="st6" d="M111.3,25.7c-4.2-2.8-9-4.3-14.1-4.3H18.5c-1.6,0-3,1.3-3,3v53.5c0,0.8,0.3,1.5,0.9,2.1
		c0.6,0.6,1.3,0.9,2.1,0.9l109.9,0c1.3,0,2.4-0.8,2.8-2l2.1-6.1c0.2-0.7,0.2-1.4,0-2L121,37.9C119.1,32.9,115.8,28.7,111.3,25.7z
		 M126.3,74.9L21.5,75V27.4h75.8c3.8,0,7.6,1.1,10.8,3.3c3.4,2.3,6,5.5,7.4,9.3l11.9,31.8L126.3,74.9z"/>
	<linearGradient id="SVGID_8_" gradientUnits="userSpaceOnUse" x1="104.6676" y1="89.8092" x2="128.4403" y2="89.8092">
		<stop  offset="0" style="stop-color:#FE330A"/>
		<stop  offset="0.1971" style="stop-color:#FF500C"/>
		<stop  offset="0.3772" style="stop-color:#FF640D"/>
		<stop  offset="0.5" style="stop-color:#FF6B0D"/>
		<stop  offset="0.6311" style="stop-color:#FF620D"/>
		<stop  offset="0.8475" style="stop-color:#FE490B"/>
		<stop  offset="1" style="stop-color:#FE330A"/>
	</linearGradient>
	<path class="st7" d="M125.5,86.8h-17.8c-1.6,0-3,1.3-3,3s1.3,3,3,3h17.8c1.6,0,3-1.3,3-3S127.1,86.8,125.5,86.8z"/>
	<linearGradient id="SVGID_9_" gradientUnits="userSpaceOnUse" x1="15.5198" y1="113.5819" x2="86.838" y2="113.5819">
		<stop  offset="0" style="stop-color:#FE330A"/>
		<stop  offset="0.1971" style="stop-color:#FF500C"/>
		<stop  offset="0.3772" style="stop-color:#FF640D"/>
		<stop  offset="0.5" style="stop-color:#FF6B0D"/>
		<stop  offset="0.6311" style="stop-color:#FF620D"/>
		<stop  offset="0.8475" style="stop-color:#FE490B"/>
		<stop  offset="1" style="stop-color:#FE330A"/>
	</linearGradient>
	<path class="st8" d="M83.9,110.6H18.5c-1.6,0-3,1.3-3,3s1.3,3,3,3h65.4c1.6,0,3-1.3,3-3S85.5,110.6,83.9,110.6z"/>
	<linearGradient id="SVGID_10_" gradientUnits="userSpaceOnUse" x1="27.4062" y1="42.2637" x2="45.2356" y2="42.2637">
		<stop  offset="0" style="stop-color:#FE330A"/>
		<stop  offset="0.1971" style="stop-color:#FF500C"/>
		<stop  offset="0.3772" style="stop-color:#FF640D"/>
		<stop  offset="0.5" style="stop-color:#FF6B0D"/>
		<stop  offset="0.6311" style="stop-color:#FF620D"/>
		<stop  offset="0.8475" style="stop-color:#FE490B"/>
		<stop  offset="1" style="stop-color:#FE330A"/>
	</linearGradient>
	<path class="st9" d="M30.4,51.2c0.8,0,1.5-0.3,2.1-0.9l11.9-11.9c1.2-1.2,1.2-3,0-4.2c-1.2-1.2-3-1.2-4.2,0L28.3,46.1
		c-1.2,1.2-1.2,3,0,4.2C28.9,50.9,29.6,51.2,30.4,51.2z"/>
	<linearGradient id="SVGID_11_" gradientUnits="userSpaceOnUse" x1="27.4062" y1="48.2069" x2="57.122" y2="48.2069">
		<stop  offset="0" style="stop-color:#FE330A"/>
		<stop  offset="0.1971" style="stop-color:#FF500C"/>
		<stop  offset="0.3772" style="stop-color:#FF640D"/>
		<stop  offset="0.5" style="stop-color:#FF6B0D"/>
		<stop  offset="0.6311" style="stop-color:#FF620D"/>
		<stop  offset="0.8475" style="stop-color:#FE490B"/>
		<stop  offset="1" style="stop-color:#FE330A"/>
	</linearGradient>
	<path class="st10" d="M52,34.2L28.3,58c-1.2,1.2-1.2,3,0,4.2c0.6,0.6,1.3,0.9,2.1,0.9c0.8,0,1.5-0.3,2.1-0.9l23.8-23.8
		c1.2-1.2,1.2-3,0-4.2C55.1,33.1,53.2,33.1,52,34.2z"/>
</g>
<g>
	<linearGradient id="SVGID_12_" gradientUnits="userSpaceOnUse" x1="438.9373" y1="-392.3217" x2="486.9373" y2="-392.3217">
		<stop  offset="0" style="stop-color:#FE330A"/>
		<stop  offset="0.1971" style="stop-color:#FF500C"/>
		<stop  offset="0.3772" style="stop-color:#FF640D"/>
		<stop  offset="0.5" style="stop-color:#FF6B0D"/>
		<stop  offset="0.6311" style="stop-color:#FF620D"/>
		<stop  offset="0.8475" style="stop-color:#FE490B"/>
		<stop  offset="1" style="stop-color:#FE330A"/>
	</linearGradient>
	<path class="st11" d="M440.8-427.1c-0.7,0.1-1.3,0.6-1.6,1.2c-0.2,0.3-0.3,0.7-0.3,1.1h0v64.8h0c0,1.1,0.8,2.1,1.9,2.3
		c14.6,3.2,29.7,3.2,44.2,0c1.1-0.2,1.9-1.2,1.9-2.3h0v-64.8h0c0-1.1-0.8-2.1-1.9-2.3C470.5-430.3,455.4-430.3,440.8-427.1z
		 M443.7-412.3l4.8,12v9.1h-4.8V-412.3z M443.7-386.3h4.8v11.3l-4.8,7.2V-386.3z M445.3-361.5l6.9-10.4h21.4l6.9,10.4
		C468.9-359.4,457-359.4,445.3-361.5z M453.3-376.7v-21.6h19.2v21.6H453.3z M482.1-367.9l-4.8-7.2v-11.3h4.8V-367.9z M482.1-391.1
		h-4.8v-9.1l4.8-12V-391.1z M481.2-423l-7.9,19.8h-20.8l-7.9-19.8C456.7-425.3,469.2-425.3,481.2-423z"/>
	<linearGradient id="SVGID_13_" gradientUnits="userSpaceOnUse" x1="395.7373" y1="-405.5366" x2="530.1373" y2="-405.5366">
		<stop  offset="0" style="stop-color:#FE330A"/>
		<stop  offset="0.1971" style="stop-color:#FF500C"/>
		<stop  offset="0.3772" style="stop-color:#FF640D"/>
		<stop  offset="0.5" style="stop-color:#FF6B0D"/>
		<stop  offset="0.6311" style="stop-color:#FF620D"/>
		<stop  offset="0.8475" style="stop-color:#FE490B"/>
		<stop  offset="1" style="stop-color:#FE330A"/>
	</linearGradient>
	<path class="st12" d="M529.4-397.6l-31.9-31.9l7.9-7.9l-3.4-3.4l-5.5,5.5v-15.2c0-14.9-12.1-27-27-27h-13.2c-14.9,0-27,12.1-27,27
		v15.2l-5.5-5.5l-3.4,3.4l7.9,7.9l-31.9,31.9c-0.9,0.9-0.9,2.5,0,3.4l7.2,7.2c0.9,0.9,2.5,0.9,3.4,0l22.3-22.3v19.6L403.6-364
		c-0.9,0.9-0.9,2.5,0,3.4l7.2,7.2c0.9,0.9,2.5,0.9,3.4,0l15.1-15.1v16.5c0,10.2,8.3,18.5,18.5,18.5H478c10.2,0,18.5-8.3,18.5-18.5
		v-16.5l12.7,12.7c0.9,0.9,2.5,0.9,3.4,0l7.2-7.2c0.9-0.9,0.9-2.5,0-3.4l-23.3-23.3v-19.6l22.3,22.3c0.9,0.9,2.5,0.9,3.4,0l7.2-7.2
		C530.4-395.2,530.4-396.7,529.4-397.6z M429.3-375.3l-16.8,16.8l-3.8-3.8l20.6-20.6V-375.3z M429.3-416.1l-24,24l-3.8-3.8
		l27.8-27.8V-416.1z M490.1-458.8c-6.1-1.5-10.8-6.2-12.3-12.3C483.4-468.9,487.9-464.4,490.1-458.8z M440.6-466.2
		c2.1-2.1,4.7-3.8,7.5-4.9c-0.6,3-2.1,5.7-4.3,7.8c-2.2,2.3-5.1,3.9-8.2,4.5C436.8-461.6,438.5-464.1,440.6-466.2z M434.1-450.6
		c0-1,0.1-2.1,0.2-3.1c2.4-0.3,4.7-0.9,6.9-2l-7.1,15.3V-450.6z M491.7-352.1c0,7.6-6.1,13.7-13.7,13.7h-30.1
		c-7.6,0-13.7-6.1-13.7-13.7V-429l16.6-35.5c1.4-2.5,2.2-5.2,2.5-8c1-0.2,2.1-0.2,3.1-0.2h13.2c1.1,0,2.1,0.1,3.2,0.2
		c0.3,2.8,1.2,5.5,2.6,8l16.4,35.5V-352.1z M491.7-440.5l-7.1-15.3c2.1,1.1,4.4,1.7,6.8,2c0.2,1,0.2,2.1,0.3,3.2V-440.5z
		 M514.7-364.7l-3.8,3.8l-14.4-14.4v-7.6L514.7-364.7z M520.5-392.1l-24-24v-7.6l27.8,27.8L520.5-392.1z"/>
</g>
</svg>
