<svg xmlns="http://www.w3.org/2000/svg" xmlns:xlink="http://www.w3.org/1999/xlink" viewBox="0 0 358.91 188.21"><defs><style>.cls-1{fill:url(#Degradado_sin_nombre_5);}.cls-2{fill:url(#Degradado_sin_nombre_5-2);}.cls-3{fill:none;}.cls-4{fill:url(#Degradado_sin_nombre_5-3);}.cls-5{fill:url(#Degradado_sin_nombre_5-4);}.cls-6{fill:url(#Degradado_sin_nombre_5-5);}</style><linearGradient id="Degradado_sin_nombre_5" x1="100.59" y1="146.41" x2="165.01" y2="146.41" gradientUnits="userSpaceOnUse"><stop offset="0" stop-color="#fe330a"/><stop offset="0.19" stop-color="#ff500c"/><stop offset="0.37" stop-color="#ff640d"/><stop offset="0.49" stop-color="#ff6b0d"/><stop offset="0.62" stop-color="#ff620d"/><stop offset="0.84" stop-color="#fe490b"/><stop offset="1" stop-color="#fe330a"/></linearGradient><linearGradient id="Degradado_sin_nombre_5-2" x1="0" y1="114.82" x2="71.17" y2="114.82" xlink:href="#Degradado_sin_nombre_5"/><linearGradient id="Degradado_sin_nombre_5-3" x1="296.69" y1="158.38" x2="358.91" y2="158.38" xlink:href="#Degradado_sin_nombre_5"/><linearGradient id="Degradado_sin_nombre_5-4" x1="274.29" y1="71.73" x2="349.34" y2="71.73" xlink:href="#Degradado_sin_nombre_5"/><linearGradient id="Degradado_sin_nombre_5-5" x1="0" y1="16.87" x2="87.78" y2="16.87" xlink:href="#Degradado_sin_nombre_5"/></defs><title>Recurso 2</title><g id="Capa_2" data-name="Capa 2"><g id="Textos"><path d="M68.83,17.67a138.32,138.32,0,0,0-14.71,9.5v6.57h8v-8h6q10,0,10-10A15.76,15.76,0,0,0,77.84,13q-4.23,2-8.24,4.23A1.56,1.56,0,0,1,68.83,17.67Z"/><path d="M86.16,84.51V89.3h33.5v19.14H67v-67h52.65V60.58H86.16v4.78h14.36V84.51Z"/><path d="M177.1,74.94l-9.57,33.5H148.38l-23.93-67h19.14L158,79.72l9.58-38.29h19.14l9.58,38.29L210.6,41.43h19.15l-23.93,67H186.67Z"/><path class="cls-1" d="M165,159.62a33.12,33.12,0,0,1-7.18,10.49,33.52,33.52,0,0,1-47.39,0,33.52,33.52,0,0,1,0-47.39,33.52,33.52,0,0,1,47.39,0A33.9,33.9,0,0,1,165,133.16l-17.66,7.61a14.39,14.39,0,0,0-3.11-4.5,14.36,14.36,0,1,0,0,20.29,14,14,0,0,0,3.06-4.5Z"/><path d="M186.6,112.91l-23.93,67h19.14l1.58-4.79H209l1.58,4.79h19.15l-23.93-67ZM189.81,156l6.36-19.15L202.54,156Z"/><path d="M291.9,136.84q0-23.93-23.93-23.93h-33.5v67h19.14V160.77L268,179.92H291.9l-15.12-20.15Q291.9,155.84,291.9,136.84ZM268,141.63H253.61v-9.58H268q4.78,0,4.79,4.79T268,141.63Z"/><path class="cls-2" d="M6.66,108.44h0A73.49,73.49,0,0,1,6,98.57c0-18.06,6.56-35.09,18.16-50.1l-5-7H0v67H1.88c4.43,33,30.79,61.77,69.29,79.77C34.5,169.63,9.92,141,6.66,108.44Z"/><path d="M16.25,108.44h2.9V74.94l23.93,33.5H62.22v-67H43.08V74.94L27.55,53.19C17,67.65,11.07,83.88,11.07,101c0,2.49.14,4.95.38,7.4h0c4.42,33,30.78,61.77,69.28,79.77C44.09,169.63,19.51,141,16.25,108.44Z"/><path class="cls-3" d="M335,160.77q4.78,0,4.79-2.58,0-2.2-4.79-2.2H320.62c-1.36,0-2.63-.08-3.88-.18-1.46,1.68-3,3.34-4.58,5Z"/><path class="cls-4" d="M335,136.84h-5.23a97.28,97.28,0,0,1-13,19c1.25.1,2.52.18,3.88.18H335q4.78,0,4.79,2.2,0,2.58-4.79,2.58H312.16a129.23,129.23,0,0,1-15.47,13.43v5.72H335q23.94,0,23.93-21.73Q358.91,136.85,335,136.84Z"/><path class="cls-5" d="M343.29,112.91a74.35,74.35,0,0,0,1-11.87c0-37.09-27.66-69.86-70-89.64,39.43,20,64.89,51.58,64.89,87.17a74.41,74.41,0,0,1-1.4,14.34h0a77.92,77.92,0,0,1-5.73,19.14h17.29V112.91Z"/><path d="M296.69,167.79c2.78-2.26,5.41-4.61,7.92-7h-7.92Z"/><path d="M333.23,101c0-37.09-27.66-69.86-70-89.64,39.42,20,64.89,51.58,64.89,87.17a74.41,74.41,0,0,1-1.4,14.34h-6.15q-23.92,0-23.93,21.35,0,16.47,13.78,20.45a99.91,99.91,0,0,0,12.89-17.87h-2.74q-4.78,0-4.78-2.58,0-2.2,4.78-2.21h5.23a79.48,79.48,0,0,0,6.43-19.14h0A74.35,74.35,0,0,0,333.23,101Z"/><path class="cls-6" d="M9.64,9.64H0V0H28.92V9.64H19.28v24.1H9.64ZM80.07,5.79V8.73c2.52-1,5.09-2,7.71-2.94Zm-18,8h6a3.36,3.36,0,0,1,.67.07c2.64-1.32,5.35-2.58,8.11-3.78-1.51-2.84-4.43-4.28-8.78-4.28h-14V22.25q3.87-2.52,8-4.85ZM49.22,25.6q-4.12,3-7.93,6.14H32.82l-.66,2h-8l10-27.95h8Zm-8.41-1.84-2.66-8-2.65,8Z"/><path d="M159.91,5.79h-14v28h14q12,0,12-14T159.91,5.79Zm0,20h-6v-12h6q4,0,4,6C163.9,23.76,162.57,25.75,159.91,25.75Z"/><path d="M187.85,5.79A13.49,13.49,0,0,0,178,9.88a13.45,13.45,0,0,0-4.09,9.88A13.44,13.44,0,0,0,178,29.64a14,14,0,0,0,19.76,0,13.44,13.44,0,0,0,4.09-9.88,13.45,13.45,0,0,0-4.09-9.88A13.49,13.49,0,0,0,187.85,5.79ZM192.08,24a6,6,0,0,1-10.22-4.24A6,6,0,1,1,192.08,24Z"/><path d="M52.12,33.74l-1.41-4q-2.43,1.93-4.71,4Z"/><path d="M219.79,15.77h-6c-1.33,0-2-.36-2-1.08s.67-.91,2-.91h12v-8h-12q-10,0-10,8.9,0,9.08,10,9.07h6c1.33,0,2,.3,2,.91s-.67,1.08-2,1.08H204.34v8h15.45q10,0,10-9.07Q229.77,15.77,219.79,15.77Z"/><path d="M80.07,33.74h8V8.59c-2.71,1.07-5.38,2.2-8,3.39Z"/><path d="M90.05,13.78h13.43l-13.43,12v8h24v-8H100.57l13.43-12v-8H95.69q-2.85,1-5.64,2Z"/><path d="M126,5.79l-10,28h8l.66-2H135.3l.66,2h8L134,5.79Zm1.33,18,2.66-8,2.65,8Z"/></g></g></svg>